<svg id="Layer_1" data-name="Layer 1" xmlns="http://www.w3.org/2000/svg" viewBox="0 0 236.2 267.5"><defs><style>.cls-1{fill:#f04d6c;}</style></defs><title>logo</title><path id="_Compound_Path_" data-name="&lt;Compound Path&gt;" class="cls-1" d="M118.1,0,0,68.2V199.3l118.1,68.2,118.1-68.2V68.2Zm97.7,187.6L118.1,244,20.4,187.6V80l97.7-56.4L215.8,80Z"/><path id="_Path_" data-name="&lt;Path&gt;" class="cls-1" d="M111.3,216.8a1.32,1.32,0,0,1-2,1.1L40.6,178.2a4,4,0,0,1-2-3.4V98a1.32,1.32,0,0,1,2-1.1l68.7,39.7a4,4,0,0,1,2,3.4Z"/><path id="_Path_2" data-name="&lt;Path&gt;" class="cls-1" d="M186.6,86.4l-65.8,38a5.34,5.34,0,0,1-5.2,0l-65.8-38a1.32,1.32,0,0,1,0-2.3l65.8-38a5.34,5.34,0,0,1,5.2,0l65.8,38A1.4,1.4,0,0,1,186.6,86.4Z"/><path id="_Path_3" data-name="&lt;Path&gt;" class="cls-1" d="M186.6,183.4l-59.7,34.4a1.32,1.32,0,0,1-2-1.1V147.8a1.32,1.32,0,0,1,2-1.1l59.7,34.4A1.4,1.4,0,0,1,186.6,183.4Z"/></svg>